<svg xmlns="http://www.w3.org/2000/svg" width="1024" height="1024" viewBox="0 0 1024 1024" role="img" aria-label="NEditor app icon">
  <defs>
    <linearGradient id="shell" x1="142" y1="112" x2="882" y2="914" gradientUnits="userSpaceOnUse">
      <stop offset="0" stop-color="#172554"/>
      <stop offset="0.48" stop-color="#164e63"/>
      <stop offset="1" stop-color="#0f766e"/>
    </linearGradient>
    <linearGradient id="page" x1="306" y1="156" x2="720" y2="820" gradientUnits="userSpaceOnUse">
      <stop offset="0" stop-color="#ffffff"/>
      <stop offset="0.68" stop-color="#eef7f4"/>
      <stop offset="1" stop-color="#d9eee8"/>
    </linearGradient>
    <linearGradient id="ink" x1="328" y1="306" x2="680" y2="768" gradientUnits="userSpaceOnUse">
      <stop offset="0" stop-color="#12213a"/>
      <stop offset="1" stop-color="#071421"/>
    </linearGradient>
    <linearGradient id="accent" x1="326" y1="578" x2="694" y2="826" gradientUnits="userSpaceOnUse">
      <stop offset="0" stop-color="#22d3ee"/>
      <stop offset="0.52" stop-color="#14b8a6"/>
      <stop offset="1" stop-color="#0f766e"/>
    </linearGradient>
    <linearGradient id="pencil" x1="694" y1="548" x2="890" y2="748" gradientUnits="userSpaceOnUse">
      <stop offset="0" stop-color="#fde68a"/>
      <stop offset="0.62" stop-color="#f59e0b"/>
      <stop offset="1" stop-color="#ea580c"/>
    </linearGradient>
    <filter id="shell-shadow" x="56" y="54" width="912" height="932" filterUnits="userSpaceOnUse" color-interpolation-filters="sRGB">
      <feDropShadow dx="0" dy="32" stdDeviation="34" flood-color="#020617" flood-opacity="0.34"/>
    </filter>
    <filter id="page-shadow" x="194" y="106" width="650" height="786" filterUnits="userSpaceOnUse" color-interpolation-filters="sRGB">
      <feDropShadow dx="0" dy="22" stdDeviation="20" flood-color="#062335" flood-opacity="0.24"/>
    </filter>
  </defs>

  <rect x="86" y="86" width="852" height="852" rx="210" fill="url(#shell)" filter="url(#shell-shadow)"/>
  <path d="M166 696c82 106 223 169 379 150 134-17 253-95 319-207v109c0 72-58 130-130 130H300c-74 0-134-51-134-116v-66Z" fill="#020617" opacity="0.18"/>

  <g filter="url(#page-shadow)">
    <path d="M306 148h328l138 140v492c0 48-39 87-87 87H306c-48 0-87-39-87-87V235c0-48 39-87 87-87Z" fill="url(#page)"/>
    <path d="M634 148v95c0 26 21 47 47 47h91L634 148Z" fill="#cfe9e2"/>
    <path d="M638 151v92c0 25 20 45 45 45h86" fill="none" stroke="#ffffff" stroke-width="12" stroke-linecap="round" opacity="0.5"/>
  </g>

  <path d="M338 322h190" stroke="#64748b" stroke-width="29" stroke-linecap="round"/>
  <path d="M338 404h288" stroke="#cbd5e1" stroke-width="25" stroke-linecap="round"/>
  <path d="M338 482h238" stroke="#cbd5e1" stroke-width="25" stroke-linecap="round"/>

  <path d="M332 812V560h79l167 202V560h87v252h-79L419 610v202h-87Z" fill="url(#ink)"/>
  <path d="M383 611v151" stroke="url(#accent)" stroke-width="24" stroke-linecap="round"/>
  <path d="M431 611l153 185" stroke="url(#accent)" stroke-width="24" stroke-linecap="round"/>
  <path d="M616 611v151" stroke="url(#accent)" stroke-width="24" stroke-linecap="round"/>

  <path d="M680 714 816 578l72 72-136 136-86 26 14-98Z" fill="url(#pencil)"/>
  <path d="m816 578 33-33c14-14 36-14 50 0l20 20c14 14 14 36 0 50l-33 33-70-70Z" fill="#fb923c"/>
  <path d="m666 812 86-26-60-60-26 86Z" fill="#111827"/>
  <path d="M724 750 855 619" stroke="#7c2d12" stroke-width="15" stroke-linecap="round" opacity="0.34"/>

  <path d="M198 246c28-56 75-93 142-112" stroke="#ffffff" stroke-width="17" stroke-linecap="round" opacity="0.38"/>
  <path d="m793 394 22 50 54 10-42 36 8 56-46-29-49 25 13-55-38-40 55-6 23-47Z" fill="#a7f3d0" opacity="0.9"/>
</svg>
