<svg xmlns="http://www.w3.org/2000/svg" width="1280" height="760" viewBox="0 0 1280 760" role="img" aria-labelledby="title desc">
  <title id="title">NEditor tables and transforms screenshot</title>
  <desc id="desc">A table editor, formula controls, transform blocks, and preview-safe chart output.</desc>
  <rect width="1280" height="760" fill="#eef2f7"/>
  <rect x="32" y="28" width="1216" height="704" rx="18" fill="#ffffff" stroke="#cbd5e1"/>
  <rect x="32" y="28" width="1216" height="54" rx="18" fill="#111827"/>
  <text x="64" y="61" font-family="Inter, Arial, sans-serif" font-size="17" font-weight="700" fill="#f9fafb">NEditor Tables and Transforms</text>
  <rect x="62" y="110" width="410" height="560" rx="14" fill="#ffffff" stroke="#d7dee8"/>
  <text x="92" y="150" font-family="Inter, Arial, sans-serif" font-size="22" font-weight="800" fill="#111827">Business table editor</text>
  <rect x="92" y="188" width="330" height="46" fill="#1f2937"/>
  <text x="114" y="217" font-family="Inter, Arial, sans-serif" font-size="14" font-weight="800" fill="#ffffff">Region</text>
  <text x="238" y="217" font-family="Inter, Arial, sans-serif" font-size="14" font-weight="800" fill="#ffffff">Revenue</text>
  <text x="344" y="217" font-family="Inter, Arial, sans-serif" font-size="14" font-weight="800" fill="#ffffff">Margin</text>
  <g font-family="Inter, Arial, sans-serif" font-size="14" fill="#334155">
    <rect x="92" y="234" width="330" height="44" fill="#f8fafc" stroke="#e2e8f0"/><text x="114" y="262">East</text><text x="250" y="262">$120k</text><text x="354" y="262">31%</text>
    <rect x="92" y="278" width="330" height="44" fill="#ffffff" stroke="#e2e8f0"/><text x="114" y="306">West</text><text x="250" y="306">$98k</text><text x="354" y="306">24%</text>
    <rect x="92" y="322" width="330" height="44" fill="#f8fafc" stroke="#e2e8f0"/><text x="114" y="350">North</text><text x="250" y="350">$132k</text><text x="354" y="350">34%</text>
    <rect x="92" y="366" width="330" height="44" fill="#fff7ed" stroke="#fdba74"/><text x="114" y="394">Total</text><text x="250" y="394">$350k</text><text x="354" y="394">=AVG</text>
  </g>
  <rect x="92" y="450" width="92" height="34" rx="8" fill="#2563eb"/><text x="116" y="472" font-family="Inter, Arial, sans-serif" font-size="13" font-weight="800" fill="#fff">Sort</text>
  <rect x="198" y="450" width="112" height="34" rx="8" fill="#111827"/><text x="220" y="472" font-family="Inter, Arial, sans-serif" font-size="13" font-weight="800" fill="#fff">Formula</text>
  <rect x="324" y="450" width="98" height="34" rx="8" fill="#16a34a"/><text x="348" y="472" font-family="Inter, Arial, sans-serif" font-size="13" font-weight="800" fill="#fff">Apply</text>
  <rect x="516" y="110" width="322" height="560" rx="14" fill="#0f172a" stroke="#1e293b"/>
  <text x="546" y="150" font-family="Inter, Arial, sans-serif" font-size="22" font-weight="800" fill="#f8fafc">Transform source</text>
  <text x="546" y="204" font-family="Menlo, Consolas, monospace" font-size="13" fill="#86efac">```chart</text>
  <text x="546" y="234" font-family="Menlo, Consolas, monospace" font-size="13" fill="#bfdbfe">type: bar</text>
  <text x="546" y="264" font-family="Menlo, Consolas, monospace" font-size="13" fill="#bfdbfe">title: Revenue by region</text>
  <text x="546" y="294" font-family="Menlo, Consolas, monospace" font-size="13" fill="#bfdbfe">x: [East, West, North]</text>
  <text x="546" y="324" font-family="Menlo, Consolas, monospace" font-size="13" fill="#bfdbfe">y: [120, 98, 132]</text>
  <text x="546" y="354" font-family="Menlo, Consolas, monospace" font-size="13" fill="#86efac">```</text>
  <rect x="546" y="426" width="232" height="110" rx="10" fill="#1e293b" stroke="#334155"/>
  <text x="568" y="456" font-family="Menlo, Consolas, monospace" font-size="13" fill="#86efac">```calc</text>
  <text x="568" y="486" font-family="Menlo, Consolas, monospace" font-size="13" fill="#bfdbfe">margin = profit / revenue</text>
  <text x="568" y="516" font-family="Menlo, Consolas, monospace" font-size="13" fill="#86efac">```</text>
  <rect x="872" y="110" width="340" height="560" rx="14" fill="#ffffff" stroke="#d7dee8"/>
  <text x="902" y="150" font-family="Inter, Arial, sans-serif" font-size="22" font-weight="800" fill="#111827">Export-safe preview</text>
  <rect x="902" y="196" width="262" height="194" rx="12" fill="#f8fafc" stroke="#cbd5e1"/>
  <rect x="940" y="300" width="48" height="58" rx="6" fill="#2563eb"/>
  <rect x="1004" y="276" width="48" height="82" rx="6" fill="#10b981"/>
  <rect x="1068" y="246" width="48" height="112" rx="6" fill="#f59e0b"/>
  <text x="940" y="226" font-family="Inter, Arial, sans-serif" font-size="14" font-weight="800" fill="#334155">Revenue by region</text>
  <rect x="902" y="430" width="262" height="74" rx="10" fill="#ecfdf5" stroke="#22c55e"/>
  <text x="924" y="460" font-family="Inter, Arial, sans-serif" font-size="14" font-weight="800" fill="#166534">Static artifact generated</text>
  <text x="924" y="484" font-family="Inter, Arial, sans-serif" font-size="13" fill="#166534">Ready for HTML, PDF, DOCX, PPTX</text>
  <rect x="902" y="530" width="262" height="74" rx="10" fill="#eff6ff" stroke="#60a5fa"/>
  <text x="924" y="560" font-family="Inter, Arial, sans-serif" font-size="14" font-weight="800" fill="#1d4ed8">Manifest evidence</text>
  <text x="924" y="584" font-family="Inter, Arial, sans-serif" font-size="13" fill="#1d4ed8">Source hash and output hash captured</text>
</svg>
