<svg xmlns="http://www.w3.org/2000/svg" width="1280" height="760" viewBox="0 0 1280 760" role="img" aria-labelledby="title desc">
  <title id="title">NEditor workbench screenshot</title>
  <desc id="desc">A desktop document workbench with a left outline, Markdown editor, live preview, diagnostics, and status bar.</desc>
  <rect width="1280" height="760" fill="#eef2f7"/>
  <rect x="32" y="28" width="1216" height="704" rx="18" fill="#f8fafc" stroke="#cbd5e1"/>
  <rect x="32" y="28" width="1216" height="54" rx="18" fill="#111827"/>
  <circle cx="58" cy="55" r="7" fill="#ef4444"/>
  <circle cx="82" cy="55" r="7" fill="#f59e0b"/>
  <circle cx="106" cy="55" r="7" fill="#22c55e"/>
  <text x="134" y="61" font-family="Inter, Arial, sans-serif" font-size="17" font-weight="700" fill="#f9fafb">NEditor</text>
  <text x="232" y="61" font-family="Inter, Arial, sans-serif" font-size="13" fill="#cbd5e1">Market Entry Report.md</text>
  <rect x="882" y="43" width="80" height="24" rx="6" fill="#2563eb"/>
  <text x="908" y="60" font-family="Inter, Arial, sans-serif" font-size="12" font-weight="700" fill="#ffffff">Export</text>
  <rect x="974" y="43" width="90" height="24" rx="6" fill="#374151"/>
  <text x="992" y="60" font-family="Inter, Arial, sans-serif" font-size="12" fill="#f9fafb">Review</text>
  <rect x="1076" y="43" width="128" height="24" rx="6" fill="#374151"/>
  <text x="1092" y="60" font-family="Inter, Arial, sans-serif" font-size="12" fill="#f9fafb">Command Palette</text>
  <rect x="50" y="100" width="230" height="590" rx="12" fill="#ffffff" stroke="#d7dee8"/>
  <text x="72" y="132" font-family="Inter, Arial, sans-serif" font-size="13" font-weight="700" fill="#334155">Outline</text>
  <rect x="72" y="154" width="176" height="8" rx="4" fill="#94a3b8"/>
  <rect x="72" y="182" width="148" height="8" rx="4" fill="#cbd5e1"/>
  <rect x="92" y="210" width="132" height="8" rx="4" fill="#cbd5e1"/>
  <rect x="92" y="238" width="118" height="8" rx="4" fill="#cbd5e1"/>
  <rect x="72" y="290" width="170" height="8" rx="4" fill="#94a3b8"/>
  <rect x="92" y="318" width="126" height="8" rx="4" fill="#cbd5e1"/>
  <text x="72" y="386" font-family="Inter, Arial, sans-serif" font-size="13" font-weight="700" fill="#334155">Diagnostics</text>
  <rect x="72" y="410" width="182" height="50" rx="8" fill="#fef3c7" stroke="#f59e0b"/>
  <text x="88" y="434" font-family="Inter, Arial, sans-serif" font-size="12" fill="#92400e">Draft export warning</text>
  <rect x="72" y="474" width="182" height="50" rx="8" fill="#dcfce7" stroke="#22c55e"/>
  <text x="88" y="498" font-family="Inter, Arial, sans-serif" font-size="12" fill="#166534">Includes resolved</text>
  <rect x="302" y="100" width="438" height="590" rx="12" fill="#0f172a" stroke="#1e293b"/>
  <text x="324" y="132" font-family="Menlo, Consolas, monospace" font-size="13" fill="#93c5fd">---</text>
  <text x="324" y="158" font-family="Menlo, Consolas, monospace" font-size="13" fill="#bfdbfe">title: Market Entry Report</text>
  <text x="324" y="184" font-family="Menlo, Consolas, monospace" font-size="13" fill="#bfdbfe">status: in-review</text>
  <text x="324" y="210" font-family="Menlo, Consolas, monospace" font-size="13" fill="#93c5fd">---</text>
  <text x="324" y="262" font-family="Menlo, Consolas, monospace" font-size="15" font-weight="700" fill="#f8fafc"># Market Entry Report</text>
  <text x="324" y="302" font-family="Menlo, Consolas, monospace" font-size="13" fill="#d1d5db">[TOC]</text>
  <text x="324" y="346" font-family="Menlo, Consolas, monospace" font-size="14" fill="#f8fafc">## Executive Summary</text>
  <text x="324" y="380" font-family="Menlo, Consolas, monospace" font-size="13" fill="#d1d5db">Expected margin: {{=margin | percent}}</text>
  <rect x="324" y="410" width="370" height="108" rx="8" fill="#1e293b" stroke="#334155"/>
  <text x="346" y="438" font-family="Menlo, Consolas, monospace" font-size="13" fill="#86efac">```chart</text>
  <text x="346" y="466" font-family="Menlo, Consolas, monospace" font-size="13" fill="#cbd5e1">type: bar</text>
  <text x="346" y="494" font-family="Menlo, Consolas, monospace" font-size="13" fill="#cbd5e1">series: Revenue by region</text>
  <text x="346" y="522" font-family="Menlo, Consolas, monospace" font-size="13" fill="#86efac">```</text>
  <rect x="760" y="100" width="468" height="590" rx="12" fill="#ffffff" stroke="#d7dee8"/>
  <text x="792" y="146" font-family="Georgia, serif" font-size="28" font-weight="700" fill="#111827">Market Entry Report</text>
  <text x="792" y="178" font-family="Inter, Arial, sans-serif" font-size="14" fill="#64748b">Prepared for Example Corp on 2026-05-18.</text>
  <rect x="792" y="214" width="360" height="1" fill="#e2e8f0"/>
  <text x="792" y="258" font-family="Inter, Arial, sans-serif" font-size="20" font-weight="700" fill="#1f2937">Executive Summary</text>
  <rect x="792" y="286" width="380" height="10" rx="5" fill="#cbd5e1"/>
  <rect x="792" y="308" width="340" height="10" rx="5" fill="#e2e8f0"/>
  <rect x="792" y="330" width="362" height="10" rx="5" fill="#e2e8f0"/>
  <rect x="792" y="374" width="380" height="150" rx="12" fill="#f8fafc" stroke="#cbd5e1"/>
  <rect x="824" y="448" width="48" height="44" rx="6" fill="#2563eb"/>
  <rect x="890" y="420" width="48" height="72" rx="6" fill="#10b981"/>
  <rect x="956" y="398" width="48" height="94" rx="6" fill="#f59e0b"/>
  <rect x="1022" y="430" width="48" height="62" rx="6" fill="#7c3aed"/>
  <text x="824" y="408" font-family="Inter, Arial, sans-serif" font-size="13" font-weight="700" fill="#334155">Revenue by region</text>
  <rect x="50" y="706" width="1178" height="14" rx="7" fill="#dbeafe"/>
  <text x="72" y="716" font-family="Inter, Arial, sans-serif" font-size="10" fill="#1d4ed8">0 diagnostics | 1,248 words | Native watch: 3 paths | Ready</text>
</svg>
