<svg xmlns="http://www.w3.org/2000/svg" viewBox="0 0 64 64" role="img" aria-label="NEditor">
  <defs>
    <linearGradient id="shell" x1="8" y1="6" x2="56" y2="58" gradientUnits="userSpaceOnUse">
      <stop offset="0" stop-color="#172554"/>
      <stop offset="0.5" stop-color="#164e63"/>
      <stop offset="1" stop-color="#0f766e"/>
    </linearGradient>
    <linearGradient id="accent" x1="19" y1="36" x2="43" y2="53" gradientUnits="userSpaceOnUse">
      <stop offset="0" stop-color="#22d3ee"/>
      <stop offset="1" stop-color="#14b8a6"/>
    </linearGradient>
  </defs>
  <rect x="4" y="4" width="56" height="56" rx="14" fill="url(#shell)"/>
  <path d="M20 9h21l9 9v32H20c-3 0-6-3-6-6V15c0-3 3-6 6-6Z" fill="#f8fafc"/>
  <path d="M41 9v6c0 2 2 4 4 4h5L41 9Z" fill="#cfe9e2"/>
  <path d="M22 23h15" stroke="#64748b" stroke-width="3" stroke-linecap="round"/>
  <path d="M22 29h19" stroke="#cbd5e1" stroke-width="3" stroke-linecap="round"/>
  <path d="M22 52V35h5l11 13V35h6v17h-5L28 39v13h-6Z" fill="#0f172a"/>
  <path d="M25 39v9" stroke="url(#accent)" stroke-width="2.6" stroke-linecap="round"/>
  <path d="m28 39 11 13" stroke="url(#accent)" stroke-width="2.6" stroke-linecap="round"/>
  <path d="M42 39v9" stroke="url(#accent)" stroke-width="2.6" stroke-linecap="round"/>
  <path d="m44 48 9-9 4 4-9 9-5 1 1-5Z" fill="#f59e0b"/>
  <path d="m53 39 2-2c1-1 2-1 3 0l1 1c1 1 1 2 0 3l-2 2-4-4Z" fill="#fb923c"/>
</svg>
